# AST/ASF file generated using VICON BodyLanguage
# -----------------------------------------------
:version 1.10
:name VICON
:units
  mass 1.0
  length 0.45
  angle deg
:documentation
   .ast/.asf automatically generated from VICON data using
   VICON BodyBuilder and BodyLanguage model FoxedUp or BRILLIANT.MOD
:root
   order TX TY TZ RX RY RZ
   axis XYZ
   position 0 0 0  
   orientation 0 0 0 
:bonedata
  begin
     id 1 
     name lhipjoint
     direction 0.650112 -0.723553 0.232005 
     length 2.45805 
     axis 0 0 0  XYZ
  end
  begin
     id 2 
     name lfemur
     direction 0.34202 -0.939693 0  
     length 7.00073  
     axis 0 0 20  XYZ
    dof rx ry rz
    limits (-160.0 20.0)
           (-70.0 70.0)
           (-60.0 70.0)
  end
  begin
     id 3 
     name ltibia
     direction 0.34202 -0.939693 0   
     length 7.8748   
     axis 0 0 20   XYZ
    dof rx
    limits (-10.0 170.0)
  end
  begin
     id 4 
     name lfoot
     direction 0.0542825 -0.14914 0.987325   
     length 1.75978   
     axis -90 7.62852e-016 20   XYZ
    dof rx rz
    limits (-45.0 90.0)
           (-70.0 20.0)
  end
  begin
     id 5 
     name ltoes
     direction 1.53509e-011 -4.21906e-011 1   
     length 0.893912   
     axis -90 7.62852e-016 20   XYZ
    dof rx
    limits (-90.0 20.0)
  end
  begin
     id 6 
     name rhipjoint
     direction -0.637897 -0.733345 0.235145   
     length 2.42522  
     axis 0 0 0  XYZ 
  end
  begin
     id 7 
     name rfemur
     direction -0.34202 -0.939693 0   
     length 7.02549   
     axis 0 0 -20   XYZ
    dof rx ry rz
    limits (-160.0 20.0)
           (-70.0 70.0)
           (-70.0 60.0)
  end
  begin
     id 8 
     name rtibia
     direction -0.34202 -0.939693 0   
     length 7.71512   
     axis 0 0 -20   XYZ
    dof rx
    limits (-10.0 170.0)
 end
 begin
     id 9 
     name rfoot
     direction -0.0822618 -0.226012 0.970645   
     length 1.90014  
     axis -90 -7.62852e-016 -20   XYZ
    dof rx rz
    limits (-45.0 90.0)
           (-20.0 70.0)
  end
  begin
     id 10 
     name rtoes
     direction -1.53542e-011 -4.21872e-011 1   
     length 0.957341   
     axis -90 -7.62852e-016 -20   XYZ
    dof rx
    limits (-90.0 20.0)
  end
  begin
     id 11 
     name lowerback
     direction -0.0022947 0.999774 -0.0211557   
     length 1.89909   
     axis 0 0 0   XYZ
    dof rx ry rz
    limits (-20.0 45.0)
           (-30.0 30.0)
           (-30.0 30.0)
  end
  begin
     id 12 
     name upperback
     direction 0.0107737 0.998635 0.0511027   
     length 1.8853   
     axis 0 0 0   XYZ
    dof rx ry rz
    limits (-20.0 45.0)
           (-30.0 30.0)
           (-30.0 30.0)
  end
  begin
     id 13 
     name thorax
     direction 0.011824 0.998136 0.0598754   
     length 1.88911   
     axis 0 0 0   XYZ
    dof rx ry rz
    limits (-20.0 45.0)
           (-30.0 30.0)
           (-30.0 30.0)
  end
  begin
     id 14 
     name lowerneck
     direction -0.0685355 0.990319 0.120714   
     length 1.91222   
     axis 0 0 0   XYZ
    dof rx ry rz
    limits (-20.0 45.0)
           (-30.0 30.0)
           (-30.0 30.0)
  end
  begin
     id 15 
     name upperneck
     direction 0.0886204 0.955665 -0.280805   
     length 1.92526   
     axis 0 0 0   XYZ
    dof rx ry rz
    limits (-20.0 45.0)
           (-30.0 30.0)
           (-30.0 30.0)
  end
  begin
     id 16
     name head
     direction 0.0233423 0.993502 -0.111393  
     length 1.96056  
     axis 0 0 0   XYZ
    dof rx ry rz
    limits (-20.0 45.0)
           (-30.0 30.0)
           (-30.0 30.0)
  end
  begin
     id 17 
     name lclavicle
     direction 0.941873 0.32922 0.0670041  
     length 3.31705  
     axis 0 0 0   XYZ
    dof ry rz
    limits (-20.0 10.0)
           (0.0 20.0)
  end
  begin
     id 18 
     name lhumerus
     direction 1 -4.4898e-011 3.38707e-028   
     length 5.29277   
     axis 180 -30 -90   XYZ
    dof rx ry rz
    limits (-60.0 90.0)
           (-90.0 90.0)
           (-90.0 90.0)
  end
  begin
     id 19
     name lradius
     direction 1 -4.48952e-011 1.63213e-028   
     length 2.85226   
     axis 180 -30 -90   XYZ
    dof rx
    limits (-10.0 170.0)
  end
  begin
     id 20
     name lwrist
     direction 1 -4.49001e-011 1.27856e-027   
     length 1.42613   
     axis -1.61767e-015 90 90   XYZ
    dof ry
    limits (-180.0 0.0)
 end
  begin
     id 21 
     name lhand
     direction 1 -4.48976e-011 2.55931e-027   
     length 0.602097   
     axis -1.63363e-015 90 90   XYZ
    dof rx rz
    limits (-90.0 90.0)
           (-45.0 45.0)
  end
  begin
     id 22 
     name lfingers
     direction 1 -4.48986e-011 5.11684e-027   
     length 0.485426   
     axis -3.26723e-015 90 90   XYZ
    dof rx
    limits (0.0 90.0)
  end
  begin
     id 23
     name lthumb
     direction 0.707107 -6.34915e-011 0.707107   
     length 0.696978   
     axis -90 45 -2.25915e-014   XYZ
    dof rx rz
    limits (-45.0 45.0)
           (-45.0 45.0)
  end
  begin
     id 24 
     name rclavicle
     direction -0.939974 0.327078 0.0973096   
     length 3.10337  
     axis 0 0 0   XYZ 
    dof ry rz
    limits (-10.0 20.0)
           (-20.0 0.0)
  end
  begin
     id 25 
     name rhumerus
     direction -1 -4.48975e-011 1.83745e-027  
     length 5.13304   
     axis 180 30 90   XYZ
    dof rx ry rz
    limits (-90.0 60.0)
           (-90.0 90.0)
           (-90.0 90.0)
  end
  begin
     id 26 
     name rradius
     direction -1 -4.48977e-011 7.1775e-029   
     length 2.74305   
     axis 180 30 90   XYZ
    dof rx
    limits (-10.0 170.0)
  end
  begin
     id 27 
     name rwrist
     direction -1 -4.48977e-011 1.27963e-027   
     length 1.37152   
     axis -1.61767e-015 -90 -90   XYZ
    dof ry
    limits (-180.0 0.0)
  end
  begin
     id 28
     name rhand
     direction -1 -4.4888e-011 2.56782e-027   
     length 0.767976   
     axis -1.63363e-015 -90 -90   XYZ
    dof rx rz
    limits (-90.0 90.0)
           (-45.0 45.0)
  end
  begin
     id 29
     name rfingers
     direction -1 -4.48947e-011 5.12384e-027   
     length 0.619162   
     axis -3.26723e-015 -90 -90   XYZ
    dof rx
    limits (0.0 90.0)
  end
  begin
     id 30
     name rthumb
     direction -0.707107 -6.34857e-011 0.707107   
     length 0.888997   
     axis -90 -45 2.25915e-014   XYZ
    dof rx rz
    limits (-45.0 45.0)
           (-45.0 45.0)
  end
:hierarchy
  begin
    root lhipjoint rhipjoint lowerback
    lhipjoint lfemur
    lfemur ltibia
    ltibia lfoot
    lfoot ltoes
    rhipjoint rfemur
    rfemur rtibia
    rtibia rfoot
    rfoot rtoes
    lowerback upperback
    upperback thorax
    thorax lowerneck lclavicle rclavicle
    lowerneck upperneck
    upperneck head
    lclavicle lhumerus
    lhumerus lradius
    lradius lwrist
    lwrist lhand lthumb
    lhand lfingers
    rclavicle rhumerus
    rhumerus rradius
    rradius rwrist
    rwrist rhand rthumb
    rhand rfingers
  end

#!OML:ASF F:\VICON\USERDATA\INSTALL\rory3\rory3.ASF
:FULLY-SPECIFIED
:DEGREES
121
root 0.0461154 17.4553 0.00934218 4.53553 1.48335 -0.180393
lowerback -2.00538 0.101366 -2.30522
upperback -2.94526 0.163936 0.926651
thorax -1.90784 0.139962 2.2441
lowerneck -12.3059 -12.0865 -16.7316
upperneck 27.2452 -18.3743 15.4516
head 14.5994 -8.16277 5.69528
rclavicle 1.88224e-015 1.09332e-014
rhumerus -32.9192 -4.0444 -86.3362
rradius 21.8565
rwrist 28.3573
rhand -9.98565 12.2342
rfingers 7.12502
rthumb 15.9975 -17.1252
lclavicle 1.88224e-015 1.09332e-014
lhumerus -30.9261 2.57711 90.5276
lradius 15.6017
lwrist -25.6576
lhand -8.55387 23.1614
lfingers 7.12502
lthumb 17.3758 52.4047
rfemur 4.80149 10.9674 19.5318
rtibia -4.77083e-015
rfoot -7.17576 -13.0382
rtoes -16.9384
lfemur -1.9475 -19.1768 -18.8028
ltibia 11.1448
lfoot -13.0641 12.018
ltoes -20.8378
122
root 0.0470434 17.4579 0.000721749 4.63524 1.37967 -0.181499
lowerback -1.96895 0.114904 -2.28369
upperback -2.93747 0.181102 0.92743
thorax -1.92109 0.148196 2.23276
lowerneck -12.3567 -12.0617 -16.6992
upperneck 27.1471 -18.3242 15.472
head 14.5545 -8.13419 5.7033
rclavicle 4.62174e-015 -1.41137e-014
rhumerus -32.8506 -3.9314 -86.4129
rradius 21.863
rwrist 28.435
rhand -9.84164 12.2243
rfingers 7.12502
rthumb 16.1361 -17.124
lclavicle 4.62174e-015 -1.41137e-014
lhumerus -30.8955 2.52656 90.5914
lradius 15.6254
lwrist -25.5329
lhand -8.83654 23.0349
lfingers 7.12502
lthumb 17.1038 52.3021
rfemur 4.62779 11.0702 19.4892
rtibia -3.18055e-015
rfoot -7.13994 -13.0182
rtoes -16.0546
lfemur -2.05363 -19.0713 -18.7769
ltibia 11.0973
lfoot -13.0954 11.9938
ltoes -20.5136
123
root 0.0485183 17.4603 -0.00812661 4.75829 1.19211 -0.225573
lowerback -1.95866 0.157095 -2.18775
upperback -2.92499 0.236594 0.926138
thorax -1.91642 0.173775 2.17762
lowerneck -12.4227 -12.0479 -16.6661
upperneck 27.0318 -18.2869 15.4965
head 14.5089 -8.10996 5.70839
rclavicle -4.95719e-015 7.55382e-015
rhumerus -32.7677 -3.71077 -86.5701
rradius 21.8649
rwrist 28.3734
rhand -9.95849 12.2153
rfingers 7.12502
rthumb 16.0236 -17.1421
lclavicle -4.95719e-015 7.55382e-015
lhumerus -30.822 2.4244 90.6596
lradius 15.6638
lwrist -25.3902
lhand -8.96128 22.9492
lfingers 7.12502
lthumb 16.9837 52.2267
rfemur 4.41457 11.2598 19.4792
rtibia -7.95139e-015
rfoot -7.0123 -13.008
rtoes -15.7351
lfemur -2.17782 -18.8778 -18.7013
ltibia 11.0374
lfoot -13.0413 12.0354
ltoes -20.4222
124
root 0.0497584 17.4622 -0.0168975 4.85038 1.16695 -0.197262
lowerback -1.86657 0.167063 -2.17266
upperback -2.94207 0.247762 0.916983
thorax -1.98613 0.180007 2.15943
lowerneck -12.3793 -12.0483 -16.7402
upperneck 26.9029 -18.2793 15.5797
head 14.4611 -8.10961 5.75355
rclavicle 5.84241e-015 -9.93923e-015
rhumerus -32.7874 -3.45842 -86.7001
rradius 21.9355
rwrist 28.3159
rhand -10.0825 12.1665
rfingers 7.12502
rthumb 15.9042 -17.2004
lclavicle 5.84241e-015 -9.93923e-015
lhumerus -30.816 2.31523 90.754
lradius 15.7076
lwrist -25.3747
lhand -8.7994 23.0315
lfingers 7.12502
lthumb 17.1395 52.2956
rfemur 4.26983 11.2819 19.4055
rtibia 1.59028e-015
rfoot -6.96521 -12.9825
rtoes -16.4741
lfemur -2.3147 -18.8528 -18.6961
ltibia 11.0298
lfoot -13.1776 11.9586
ltoes -19.311
125
root 0.0507171 17.4632 -0.0240774 4.91422 1.23594 -0.0946781
lowerback -1.78458 0.138908 -2.24236
upperback -2.93181 0.208571 0.896977
thorax -2.0198 0.161933 2.17777
lowerneck -12.3346 -12.0523 -16.7961
upperneck 26.7443 -18.2683 15.6399
head 14.3938 -8.1087 5.78536
rclavicle 6.36732e-016 -1.98785e-016
rhumerus -32.7706 -3.08739 -86.8652
rradius 22.003
rwrist 28.1593
rhand -10.0651 12.1564
rfingers 7.12502
rthumb 15.9209 -17.2092
lclavicle 6.36732e-016 -1.98785e-016
lhumerus -30.7739 2.4095 90.7724
lradius 15.686
lwrist -25.5211
lhand -8.80856 22.959
lfingers 7.12502
lthumb 17.1307 52.2238
rfemur 4.18437 11.2038 19.2796
rtibia -1.90833e-014
rfoot -6.86279 -13.0071
rtoes -17.8869
lfemur -2.44197 -18.9287 -18.7667
ltibia 11.0455
lfoot -13.3428 11.8364
ltoes -18.1802
126
root 0.0517403 17.4648 -0.0313134 4.96868 1.24059 -0.10523
lowerback -1.69747 0.139019 -2.18187
upperback -2.91468 0.206752 0.89425
thorax -2.05053 0.159933 2.14077
lowerneck -12.3201 -12.0655 -16.8092
upperneck 26.5851 -18.2641 15.6629
head 14.3242 -8.10848 5.7913
rclavicle -1.08089e-015 6.95746e-015
rhumerus -32.7292 -2.97035 -86.9391
rradius 21.9867
rwrist 28.3206
rhand -10.1537 12.1995
rfingers 7.12502
rthumb 15.8357 -17.1729
lclavicle -1.08089e-015 6.95746e-015
lhumerus -30.7492 2.2172 90.89
lradius 15.7295
lwrist -25.3434
lhand -8.75216 22.9442
lfingers 7.12502
lthumb 17.185 52.2043
rfemur 4.09776 11.1995 19.2713
rtibia 1.43125e-014
rfoot -6.85806 -12.9872
rtoes -17.324
lfemur -2.53668 -18.9309 -18.7318
ltibia 11.0508
lfoot -13.078 11.9246
ltoes -19.5803
127
root 0.0523597 17.4663 -0.0401202 5.01545 1.15804 -0.17895
lowerback -1.59136 0.147086 -2.1127
upperback -2.87967 0.215831 0.923835
thorax -2.07423 0.163297 2.13207
lowerneck -12.427 -12.0625 -16.7513
upperneck 26.5021 -18.2352 15.6468
head 14.2954 -8.08669 5.77262
rclavicle -1.6027e-015 -6.95746e-015
rhumerus -32.6813 -2.6544 -87.113
rradius 22.0302
rwrist 28.3595
rhand -10.3591 12.0877
rfingers 7.12502
rthumb 15.6378 -17.3003
lclavicle -1.6027e-015 -6.95746e-015
lhumerus -30.6635 2.05545 90.9836
lradius 15.735
lwrist -25.1795
lhand -8.60936 23.0404
lfingers 7.12502
lthumb 17.3224 52.2884
rfemur 3.98555 11.2875 19.3237
rtibia 3.18055e-015
rfoot -6.82627 -12.9845
rtoes -17.0356
lfemur -2.60127 -18.8406 -18.6373
ltibia 11.0275
lfoot -12.7926 12.0153
ltoes -20.8374
128
root 0.0537286 17.4683 -0.048613 5.05723 1.1112 -0.219546
lowerback -1.4822 0.160037 -2.04114
upperback -2.84264 0.230821 0.908681
thorax -2.09758 0.169013 2.07595
lowerneck -12.4639 -12.0547 -16.6636
upperneck 26.377 -18.2343 15.7022
head 14.2454 -8.07146 5.77473
rclavicle 4.47887e-015 -1.88845e-015
rhumerus -32.6484 -2.38765 -87.3152
rradius 22.0771
rwrist 28.4601
rhand -10.502 11.9713
rfingers 7.12502
rthumb 15.5002 -17.4274
lclavicle 4.47887e-015 -1.88845e-015
lhumerus -30.56 1.85382 91.0289
lradius 15.7571
lwrist -25.1475
lhand -8.301 23.3862
lfingers 7.12502
lthumb 17.6192 52.6078
rfemur 3.91077 11.3372 19.3421
rtibia 3.18055e-015
rfoot -6.70294 -12.9869
rtoes -16.6603
lfemur -2.6818 -18.7889 -18.5798
ltibia 11.0404
lfoot -12.7175 12.0508
ltoes -21.1508
129
root 0.0552458 17.4694 -0.0569021 5.1226 1.12377 -0.192478
lowerback -1.39803 0.18664 -1.98608
upperback -2.81184 0.263822 0.844761
thorax -2.11402 0.183499 1.9789
lowerneck -12.4826 -12.0744 -16.5756
upperneck 26.2349 -18.2776 15.7668
head 14.1952 -8.07552 5.77055
rclavicle 7.52586e-015 -1.43125e-014
rhumerus -32.5973 -2.28771 -87.4754
rradius 22.0494
rwrist 28.6419
rhand -10.4443 12.081
rfingers 7.12502
rthumb 15.5558 -17.3134
lclavicle 7.52586e-015 -1.43125e-014
lhumerus -30.4145 1.93424 90.9394
lradius 15.6759
lwrist -25.6195
lhand -7.89796 23.6429
lfingers 7.12502
lthumb 18.007 52.8293
rfemur 3.85065 11.3216 19.2946
rtibia -1.27222e-014
rfoot -6.53749 -13.0279
rtoes -16.1396
lfemur -2.79099 -18.8022 -18.5834
ltibia 11.046
lfoot -12.8974 11.9056
ltoes -19.6467
130
root 0.0547073 17.4707 -0.0651546 5.20338 1.1397 -0.226803
lowerback -1.34908 0.207717 -1.91829
upperback -2.76745 0.290996 0.829387
thorax -2.0965 0.194884 1.92477
lowerneck -12.5008 -12.0871 -16.5802
upperneck 26.0414 -18.3053 15.914
head 14.142 -8.07435 5.81731
rclavicle 6.08778e-015 1.89839e-014
rhumerus -32.4879 -2.04757 -87.6516
rradius 22.0232
rwrist 28.7122
rhand -10.1748 12.2021
rfingers 7.12502
rthumb 15.8153 -17.1719
lclavicle 6.08778e-015 1.89839e-014
lhumerus -30.3355 1.76815 91.0017
lradius 15.7362
lwrist -25.7518
lhand -8.09251 23.5028
lfingers 7.12502
lthumb 17.8198 52.7064
rfemur 3.7539 11.3078 19.3126
rtibia -1.59028e-015
rfoot -6.48293 -13.0282
rtoes -15.4712
lfemur -2.90831 -18.8117 -18.4975
ltibia 11.0133
lfoot -13.0549 11.8234
ltoes -18.3061
131
root 0.0527989 17.4725 -0.0745671 5.27771 1.14685 -0.209059
lowerback -1.26565 0.200148 -1.95262
upperback -2.72034 0.279585 0.830983
thorax -2.09455 0.189427 1.94551
lowerneck -12.5346 -12.0931 -16.5921
upperneck 25.837 -18.3087 16.0376
head 14.0801 -8.06523 5.8594
rclavicle 1.04828e-015 -7.95139e-015
rhumerus -32.4034 -1.6555 -87.8824
rradius 22.0694
rwrist 28.7367
rhand -9.94085 12.2057
rfingers 7.12502
rthumb 16.0406 -17.1503
lclavicle 1.04828e-015 -7.95139e-015
lhumerus -30.2819 1.69088 91.0708
lradius 15.807
lwrist -25.8369
lhand -8.83005 22.9425
lfingers 7.12502
lthumb 17.11 52.2091
rfemur 3.62886 11.2981 19.2757
rtibia 7.95139e-015
rfoot -6.46605 -12.9994
rtoes -15.3598
lfemur -3.01285 -18.8164 -18.4534
ltibia 10.9504
lfoot -12.9278 11.8211
ltoes -18.6867
132
root 0.0518334 17.4744 -0.0837786 5.3746 1.18117 -0.162908
lowerback -1.17227 0.180352 -1.99244
upperback -2.70939 0.251327 0.823362
thorax -2.1346 0.176373 1.95993
lowerneck -12.5747 -12.1031 -16.6332
upperneck 25.7289 -18.3129 16.1166
head 14.0589 -8.06212 5.89128
rclavicle 1.84497e-015 -4.17448e-015
rhumerus -32.3671 -1.25289 -88.0932
rradius 22.0824
rwrist 28.8237
rhand -9.83729 12.1497
rfingers 7.12502
rthumb 16.1403 -17.1983
lclavicle 1.84497e-015 -4.17448e-015
lhumerus -30.2705 1.46026 91.2049
lradius 15.9035
lwrist -25.6251
lhand -9.17862 22.6277
lfingers 7.12502
lthumb 16.7745 51.9231
rfemur 3.48343 11.2584 19.2015
rtibia -7.95139e-015
rfoot -6.41083 -12.9644
rtoes -15.7984
lfemur -3.14738 -18.8509 -18.4393
ltibia 10.8951
lfoot -12.7659 11.852
ltoes -19.248
133
root 0.0510466 17.477 -0.0918736 5.44255 1.22705 -0.0908221
lowerback -1.06252 0.159656 -2.06116
upperback -2.6838 0.22127 0.805937
thorax -2.16877 0.162702 1.98056
lowerneck -12.6216 -12.129 -16.6666
upperneck 25.5904 -18.332 16.1828
head 14.0267 -8.066 5.91121
rclavicle 3.04156e-015 -5.36719e-015
rhumerus -32.2954 -0.882862 -88.3044
rradius 22.0376
rwrist 28.9773
rhand -9.9369 12.1888
rfingers 7.12502
rthumb 16.0444 -17.1669
lclavicle 3.04156e-015 -5.36719e-015
lhumerus -30.1912 1.23683 91.338
lradius 15.9411
lwrist -25.4689
lhand -9.09244 22.5518
lfingers 7.12502
lthumb 16.8575 51.8401
rfemur 3.39039 11.2049 19.1129
rtibia 9.54166e-015
rfoot -6.36771 -12.9682
rtoes -16.1597
lfemur -3.22368 -18.9005 -18.4668
ltibia 10.7995
lfoot -12.5086 11.9029
ltoes -20.1387
134
root 0.0514512 17.4797 -0.0989327 5.53884 1.23877 -0.0217838
lowerback -0.991779 0.163401 -2.11879
upperback -2.68147 0.22443 0.790969
thorax -2.20658 0.165732 1.99731
lowerneck -12.6001 -12.15 -16.7072
upperneck 25.4576 -18.3516 16.245
head 13.9826 -8.07507 5.93416
rclavicle -3.76759e-015 -5.96354e-015
rhumerus -32.303 -0.491079 -88.4992
rradius 22.0762
rwrist 29.0205
rhand -9.86645 12.2762
rfingers 7.12502
rthumb 16.1122 -17.074
lclavicle -3.76759e-015 -5.96354e-015
lhumerus -30.124 1.33643 91.362
lradius 15.8837
lwrist -25.7233
lhand -9.18753 22.4279
lfingers 7.12502
lthumb 16.7659 51.724
rfemur 3.25748 11.185 19.0087
rtibia 1.59028e-015
rfoot -6.3262 -12.9941
rtoes -15.1818
lfemur -3.31485 -18.9158 -18.4946
ltibia 10.704
lfoot -12.3013 11.9432
ltoes -20.8203
